<?xml version="1.0" encoding="UTF-8" standalone="no"?>
<!-- Created with Inkscape (http://www.inkscape.org/) -->

<svg
   id="svg2"
   viewBox="0 0 709.64 318.6"
   version="1.0"
   xmlns="http://www.w3.org/2000/svg"
   xmlns:svg="http://www.w3.org/2000/svg"
   xmlns:rdf="http://www.w3.org/1999/02/22-rdf-syntax-ns#"
   xmlns:cc="http://creativecommons.org/ns#"
   xmlns:dc="http://purl.org/dc/elements/1.1/">
  <defs
     id="defs9" />
  <g
     id="layer1"
     transform="translate(-18.802 -64.294)">
    <path
       id="path2491"
       style="stroke-linejoin:round;stroke:#000000;stroke-linecap:round;stroke-width:15;fill:#ffffff;fill-opacity:1;stroke-miterlimit:4;stroke-dasharray:none"
       d="m486.47 249.44c17.36-18.58-2.61-52.28-1.19-100.23 1.43-47.87 33.75-64.18 33.75-64.18s-10.33 4.037-6.98 27.38c2.84 19.8 9.13 42.82 23.5 55.58 14.79 12.23 39.12 45.62 30.15 63.45 18.09-6.14 46.27 8.4 67.08 27.68 21.72 20.55 35.63 30.45 50.69 35.26 21.63 6.92 37.47 0.82 37.47 0.82-24.75 21.36-72.19 21.67-103.15 15.92-30.29-5.63-47.2-22.11-74.75-15.8-34.98 11.95-92.86 66.09-181.53 77.64s-298.26-20.39-323.39-46.83c-25.136-26.43-2.101-35.33-3.753-34.14-0.224-0.23 6.034 5.98 133.22 37.5-22.82-3.67-138.2-40.99-137.99-42.53 0.324 0.11 51.896-190.66 94.97-211.04 43.07-20.368 140.96 38.97 216.25 82.99 89.27 52.21 125.84 111.73 145.65 90.53z" />
    <path
       id="path3894"
       style="stroke-linejoin:round;stroke:#000000;stroke-linecap:round;stroke-width:15;fill:#000000"
       d="m220 314.51a13.571 12.143 0 1 1 -27.14 0 13.571 12.143 0 1 1 27.14 0z"
       transform="matrix(.85895 0 0 .80874 30.239 43.723)" />
  </g>
  <metadata
     id="metadata6">
    <rdf:RDF>
      <cc:Work>
        <dc:format>image/svg+xml</dc:format>
        <dc:type
           rdf:resource="http://purl.org/dc/dcmitype/StillImage" />
        <cc:license
           rdf:resource="http://creativecommons.org/publicdomain/zero/1.0/" />
        <dc:publisher>
          <cc:Agent
             rdf:about="http://openclipart.org/">
            <dc:title>Openclipart</dc:title>
          </cc:Agent>
        </dc:publisher>
        <dc:date>2008-10-24T04:19:54</dc:date>
        <dc:description>Cartoon diagram of a whale</dc:description>
        <dc:source>https://openclipart.org/detail/19703/whale-by-stumbles</dc:source>
        <dc:creator>
          <cc:Agent>
            <dc:title>stumbles</dc:title>
          </cc:Agent>
        </dc:creator>
        <dc:subject>
          <rdf:Bag>
            <rdf:li>animal</rdf:li>
            <rdf:li>fish</rdf:li>
            <rdf:li>mammal</rdf:li>
            <rdf:li>whale</rdf:li>
          </rdf:Bag>
        </dc:subject>
      </cc:Work>
      <cc:License
         rdf:about="http://creativecommons.org/publicdomain/zero/1.0/">
        <cc:permits
           rdf:resource="http://creativecommons.org/ns#Reproduction" />
        <cc:permits
           rdf:resource="http://creativecommons.org/ns#Distribution" />
        <cc:permits
           rdf:resource="http://creativecommons.org/ns#DerivativeWorks" />
      </cc:License>
    </rdf:RDF>
  </metadata>
</svg>
